<svg width="62" height="52" viewBox="0 0 62 52" fill="none" xmlns="http://www.w3.org/2000/svg">
<path d="M15.5771 9.64258C15.5771 9.14453 15.4014 8.76367 15.0498 8.5C14.6982 8.23047 14.0654 7.94922 13.1514 7.65625C12.2373 7.35742 11.5137 7.06445 10.9805 6.77734C9.52734 5.99219 8.80078 4.93457 8.80078 3.60449C8.80078 2.91309 8.99414 2.29785 9.38086 1.75879C9.77344 1.21387 10.333 0.789063 11.0596 0.484375C11.792 0.179687 12.6123 0.0273438 13.5205 0.0273438C14.4346 0.0273438 15.249 0.194336 15.9639 0.52832C16.6787 0.856445 17.2324 1.32227 17.625 1.92578C18.0234 2.5293 18.2227 3.21484 18.2227 3.98242H15.5859C15.5859 3.39648 15.4014 2.94238 15.0322 2.62012C14.6631 2.29199 14.1445 2.12793 13.4766 2.12793C12.832 2.12793 12.3311 2.26563 11.9736 2.54102C11.6162 2.81055 11.4375 3.16797 11.4375 3.61328C11.4375 4.0293 11.6455 4.37793 12.0615 4.65918C12.4834 4.94043 13.1016 5.2041 13.916 5.4502C15.416 5.90137 16.5088 6.46094 17.1943 7.12891C17.8799 7.79688 18.2227 8.62891 18.2227 9.625C18.2227 10.7324 17.8037 11.6025 16.9658 12.2354C16.1279 12.8623 15 13.1758 13.582 13.1758C12.5977 13.1758 11.7012 12.9971 10.8926 12.6396C10.084 12.2764 9.46582 11.7812 9.03809 11.1543C8.61621 10.5273 8.40527 9.80078 8.40527 8.97461H11.0508C11.0508 10.3867 11.8945 11.0928 13.582 11.0928C14.209 11.0928 14.6982 10.9668 15.0498 10.7148C15.4014 10.457 15.5771 10.0996 15.5771 9.64258ZM27.2402 10.3633H22.6172L21.7383 13H18.9346L23.6982 0.203125H26.1416L30.9316 13H28.1279L27.2402 10.3633ZM23.3291 8.22754H26.5283L24.9199 3.4375L23.3291 8.22754ZM36.1699 9.82715L39.0703 0.203125H42.0059L37.5498 13H34.7988L30.3604 0.203125H33.2871L36.1699 9.82715ZM50.918 7.4541H45.8555V10.8818H51.7969V13H43.2188V0.203125H51.7793V2.33887H45.8555V5.38867H50.918V7.4541ZM3.50977 19.2031L6.79688 28.4844L10.0664 19.2031H13.5293V32H10.8838V28.502L11.1475 22.4639L7.69336 32H5.88281L2.4375 22.4727L2.70117 28.502V32H0.0644531V19.2031H3.50977ZM26.3438 25.8916C26.3438 27.1514 26.1211 28.2559 25.6758 29.2051C25.2305 30.1543 24.5918 30.8867 23.7598 31.4023C22.9336 31.918 21.9844 32.1758 20.9121 32.1758C19.8516 32.1758 18.9053 31.9209 18.0732 31.4111C17.2412 30.9014 16.5967 30.1748 16.1396 29.2314C15.6826 28.2822 15.4512 27.1924 15.4453 25.9619V25.3291C15.4453 24.0693 15.6709 22.9619 16.1221 22.0068C16.5791 21.0459 17.2207 20.3105 18.0469 19.8008C18.8789 19.2852 19.8281 19.0273 20.8945 19.0273C21.9609 19.0273 22.9072 19.2852 23.7334 19.8008C24.5654 20.3105 25.207 21.0459 25.6582 22.0068C26.1152 22.9619 26.3438 24.0664 26.3438 25.3203V25.8916ZM23.6719 25.3115C23.6719 23.9697 23.4316 22.9502 22.9512 22.2529C22.4707 21.5557 21.7852 21.207 20.8945 21.207C20.0098 21.207 19.3271 21.5527 18.8467 22.2441C18.3662 22.9297 18.123 23.9375 18.1172 25.2676V25.8916C18.1172 27.1982 18.3574 28.2119 18.8379 28.9326C19.3184 29.6533 20.0098 30.0137 20.9121 30.0137C21.7969 30.0137 22.4766 29.668 22.9512 28.9766C23.4258 28.2793 23.666 27.2656 23.6719 25.9355V25.3115ZM38.666 32H36.0293L30.8965 23.5801V32H28.2598V19.2031H30.8965L36.0381 27.6406V19.2031H38.666V32ZM48.668 26.4541H43.6055V29.8818H49.5469V32H40.9688V19.2031H49.5293V21.3389H43.6055V24.3887H48.668V26.4541ZM55.5059 24.9688L58.1689 19.2031H61.0518L56.8506 27.3594V32H54.1699V27.3594L49.9688 19.2031H52.8604L55.5059 24.9688ZM12.3955 40.3389H8.47559V51H5.83887V40.3389H1.97168V38.2031H12.3955V40.3389ZM24.1729 44.8916C24.1729 46.1514 23.9502 47.2559 23.5049 48.2051C23.0596 49.1543 22.4209 49.8867 21.5889 50.4023C20.7627 50.918 19.8135 51.1758 18.7412 51.1758C17.6807 51.1758 16.7344 50.9209 15.9023 50.4111C15.0703 49.9014 14.4258 49.1748 13.9688 48.2314C13.5117 47.2822 13.2803 46.1924 13.2744 44.9619V44.3291C13.2744 43.0693 13.5 41.9619 13.9512 41.0068C14.4082 40.0459 15.0498 39.3105 15.876 38.8008C16.708 38.2852 17.6572 38.0273 18.7236 38.0273C19.79 38.0273 20.7363 38.2852 21.5625 38.8008C22.3945 39.3105 23.0361 40.0459 23.4873 41.0068C23.9443 41.9619 24.1729 43.0664 24.1729 44.3203V44.8916ZM21.501 44.3115C21.501 42.9697 21.2607 41.9502 20.7803 41.2529C20.2998 40.5557 19.6143 40.207 18.7236 40.207C17.8389 40.207 17.1562 40.5527 16.6758 41.2441C16.1953 41.9297 15.9521 42.9375 15.9463 44.2676V44.8916C15.9463 46.1982 16.1865 47.2119 16.667 47.9326C17.1475 48.6533 17.8389 49.0137 18.7412 49.0137C19.626 49.0137 20.3057 48.668 20.7803 47.9766C21.2549 47.2793 21.4951 46.2656 21.501 44.9355V44.3115ZM26.0889 51V38.2031H30.0264C31.1514 38.2031 32.1562 38.458 33.041 38.9678C33.9316 39.4717 34.626 40.1924 35.124 41.1299C35.6221 42.0615 35.8711 43.1221 35.8711 44.3115V44.9004C35.8711 46.0898 35.625 47.1475 35.1328 48.0732C34.6465 48.999 33.958 49.7168 33.0674 50.2266C32.1768 50.7363 31.1719 50.9941 30.0527 51H26.0889ZM28.7256 40.3389V48.8818H30C31.0312 48.8818 31.8193 48.5449 32.3643 47.8711C32.9092 47.1973 33.1875 46.2334 33.1992 44.9795V44.3027C33.1992 43.002 32.9297 42.0176 32.3906 41.3496C31.8516 40.6758 31.0635 40.3389 30.0264 40.3389H28.7256ZM44.8271 48.3633H40.2041L39.3252 51H36.5215L41.2852 38.2031H43.7285L48.5186 51H45.7148L44.8271 48.3633ZM40.916 46.2275H44.1152L42.5068 41.4375L40.916 46.2275ZM52.8076 43.9688L55.4707 38.2031H58.3535L54.1523 46.3594V51H51.4717V46.3594L47.2705 38.2031H50.1621L52.8076 43.9688Z" fill="white"/>
</svg>
